<svg height="512pt" viewBox="-6 0 512 512" width="512pt" xmlns="http://www.w3.org/2000/svg"><path d="m0 261.621094c0-138.101563 111.804688-250.085938 249.835938-250.378906 137.546874-.289063 248.976562 109.265624 250.898437 246.800781 1.113281 79.675781-35.003906 150.949219-92.054687 197.558593-5.367188 4.386719-12.988282 4.644532-18.738282.777344-39.878906-26.824218-87.890625-42.488281-139.5625-42.488281-51.601562 0-99.550781 15.617187-139.394531 42.375-5.855469 3.929687-13.605469 3.675781-19.0625-.792969-56.105469-45.914062-91.921875-115.695312-91.921875-193.851562zm0 0" fill="#08e092"/><path d="m408.78125 40.878906v414.640625c-10.640625 8.703125-22.011719 16.550781-34.003906 23.429688-.40625.234375-127.425782-1.773438-127.425782-1.773438-68.253906-12.144531-139.867187-34.523437-155.375-52.597656v-383.699219c0-22.578125 18.300782-40.878906 40.878907-40.878906h235.046875c22.578125 0 40.878906 18.300781 40.878906 40.878906zm0 0" fill="#528ed7"/><path d="m164.535156 0c-22.578125 0-40.878906 18.300781-40.878906 40.878906v436.710938c-11.140625-6.550782-21.730469-13.929688-31.679688-22.070313v-414.640625c0-22.578125 18.300782-40.878906 40.878907-40.878906zm198.257813 20.4375c-5.644531 0-10.21875 4.578125-10.21875 10.222656 0 5.644532 4.574219 10.21875 10.21875 10.21875s10.222656-4.574218 10.222656-10.21875c0-5.644531-4.578125-10.222656-10.222656-10.222656zm0 0" fill="#0573cd"/><path d="m337.246094 30.660156c0 5.644532-4.574219 10.21875-10.21875 10.21875-5.644532 0-10.222656-4.574218-10.222656-10.21875 0-5.644531 4.578124-10.222656 10.222656-10.222656 5.644531 0 10.21875 4.578125 10.21875 10.222656zm0 0" fill="#b1c9eb"/><path d="m377.101562 61.316406v416.273438c-37.171874 21.859375-80.480468 34.410156-126.722656 34.410156-46.242187 0-89.546875-12.550781-126.722656-34.410156v-416.273438c0-5.644531 4.574219-10.21875 10.21875-10.21875h233.007812c5.644532 0 10.21875 4.574219 10.21875 10.21875zm0 0" fill="#d3f1f5"/><path d="m182.929688 470.101562c0 5.640626-4.574219 10.21875-10.21875 10.21875-5.644532 0-10.21875-4.578124-10.21875-10.21875 0-5.644531 4.574218-10.222656 10.21875-10.222656 5.644531 0 10.21875 4.578125 10.21875 10.222656zm20.441406-10.222656c-5.644532 0-10.222656 4.578125-10.222656 10.222656 0 5.640626 4.578124 10.21875 10.222656 10.21875 5.640625 0 10.21875-4.578124 10.21875-10.21875 0-5.644531-4.578125-10.222656-10.21875-10.222656zm30.65625 0c-5.644532 0-10.21875 4.578125-10.21875 10.222656 0 5.640626 4.574218 10.21875 10.21875 10.21875 5.644531 0 10.21875-4.578124 10.21875-10.21875 0-5.644531-4.574219-10.222656-10.21875-10.222656zm0 0" fill="#84deea"/><path d="m448.640625 107.304688v10.21875c0 2.824218-2.289063 5.109374-5.113281 5.109374h-173.730469c-2.820313 0-5.109375-2.285156-5.109375-5.109374v-10.21875c0-2.820313 2.289062-5.109376 5.109375-5.109376h173.730469c2.824218 0 5.113281 2.289063 5.113281 5.109376zm-178.84375 56.207031h51.097656c2.820313 0 5.109375-2.285157 5.109375-5.109375v-10.21875c0-2.820313-2.289062-5.109375-5.109375-5.109375h-51.097656c-2.820313 0-5.109375 2.289062-5.109375 5.109375v10.21875c0 2.824218 2.289062 5.109375 5.109375 5.109375zm173.730469 51.097656h-173.730469c-2.820313 0-5.109375 2.289063-5.109375 5.109375v10.222656c0 2.820313 2.289062 5.109375 5.109375 5.109375h173.730469c2.824218 0 5.113281-2.289062 5.113281-5.109375v-10.222656c0-2.820312-2.289063-5.109375-5.113281-5.109375zm-102.195313 40.878906h-71.535156c-2.820313 0-5.109375 2.289063-5.109375 5.109375v10.222656c0 2.820313 2.289062 5.109376 5.109375 5.109376h71.535156c2.824219 0 5.109375-2.289063 5.109375-5.109376v-10.222656c0-2.820312-2.285156-5.109375-5.109375-5.109375zm0 0" fill="#2b6c7e"/><path d="m223.808594 132.855469c0 22.574219-18.300782 40.878906-40.878906 40.878906-22.574219 0-40.878907-18.304687-40.878907-40.878906 0-22.578125 18.304688-40.878907 40.878907-40.878907 22.578124 0 40.878906 18.300782 40.878906 40.878907zm-40.878906 71.535156c-22.574219 0-40.878907 18.304687-40.878907 40.878906s18.304688 40.878907 40.878907 40.878907c22.578124 0 40.878906-18.304688 40.878906-40.878907s-18.300782-40.878906-40.878906-40.878906zm0 0" fill="#fff5f5"/><path d="m260.195312 80.261719-70.039062 70.039062c-3.992188 3.988281-10.460938 3.988281-14.453125 0l-35.148437-35.148437c-1.996094-1.996094-1.996094-5.230469 0-7.226563l7.226562-7.226562c1.996094-1.996094 5.230469-1.996094 7.226562 0l24.308594 24.308593c1.996094 1.996094 5.234375 1.996094 7.226563 0l59.203125-59.199218c1.996094-1.996094 5.230468-1.996094 7.226562 0l7.222656 7.226562c1.996094 1.992188 1.996094 5.230469 0 7.226563zm0 0" fill="#04d481"/><path d="m215.699219 429.222656c-33.519531 0-66.5-8.472656-95.871094-24.625l-41.140625-22.628906c-7.0625-3.882812-7.0625-14.027344 0-17.910156l41.140625-22.628906c29.371094-16.152344 62.351563-24.625 95.871094-24.625zm0 0" fill="#fde0b8"/><path d="m215.699219 388.34375v40.878906c-33.519531 0-66.5-8.472656-95.871094-24.625l-41.140625-22.628906c-3.117188-1.714844-4.855469-4.652344-5.21875-7.730469 45.125 9.289063 93.375 14.105469 142.230469 14.105469zm0 0" fill="#fdc273"/><path d="m436.378906 429.222656h-221.511718v-112.417968h279.777343c-9.585937 42.605468-28.972656 81.164062-58.265625 112.417968zm0 0" fill="#fc6930"/><path d="m466.828125 388.34375h-251.960937v-71.539062h279.789062c-5.746094 25.546874-14.933594 49.609374-27.828125 71.539062zm0 0" fill="#fd7d43"/><path d="m123.65625 406.660156c-1.300781-.679687-2.605469-1.355468-3.894531-2.0625l-41.140625-22.628906c-7.0625-3.882812-7.0625-14.027344 0-17.910156l41.140625-22.628906c1.289062-.707032 2.59375-1.382813 3.894531-2.0625zm0 0" fill="#174550"/></svg>