<?xml version="1.0" encoding="iso-8859-1"?>
<!-- Generator: Adobe Illustrator 19.0.0, SVG Export Plug-In . SVG Version: 6.00 Build 0)  -->
<svg version="1.1" id="Capa_1" xmlns="http://www.w3.org/2000/svg" xmlns:xlink="http://www.w3.org/1999/xlink" x="0px" y="0px"
	 viewBox="0 0 512 512" style="enable-background:new 0 0 512 512;" xml:space="preserve">
<g>
	<path style="fill:#3B97D3;" d="M507.661,17.356v364.475H4.339V17.356C4.368,7.782,12.121,0.029,21.695,0h468.61
		C499.879,0.029,507.632,7.782,507.661,17.356z"/>
	<path style="fill:#2980BA;" d="M4.339,321.085C4.339,321.085,229.966,0,472.949,0h17.356c9.585,0,17.356,7.771,17.356,17.356
		v355.797H4.339V321.085z"/>
	<rect x="203.932" y="390.508" style="fill:#2C3E50;" width="86.78" height="112.814"/>
	<g>
		<path style="fill:#35495E;" d="M507.661,355.797v52.068c-0.029,9.574-7.782,17.327-17.356,17.356H21.695
			c-9.574-0.029-17.327-7.782-17.356-17.356v-52.068H507.661z"/>
		<path style="fill:#35495E;" d="M386.169,512H125.831c-4.793,0-8.678-3.885-8.678-8.678c0-4.793,3.885-8.678,8.678-8.678h260.339
			c4.793,0,8.678,3.885,8.678,8.678C394.847,508.115,390.962,512,386.169,512z"/>
	</g>
	<g>
		<path style="fill:#89C1E5;" d="M30.373,86.78c-4.793,0-8.678-3.885-8.678-8.678v-43.39c0-4.793,3.885-8.678,8.678-8.678
			s8.678,3.885,8.678,8.678v43.39C39.051,82.894,35.166,86.78,30.373,86.78z"/>
		<circle style="fill:#89C1E5;" cx="30.373" cy="112.814" r="8.678"/>
	</g>
	<path style="fill:#ECF0F1;" d="M386.169,277.695H73.763c-4.793,0-8.678-3.885-8.678-8.678V86.78c0-4.793,3.885-8.678,8.678-8.678
		h364.475c4.793,0,8.678,3.885,8.678,8.678v182.237c0,4.793-3.885,8.678-8.678,8.678H386.169z"/>
	<g>
		<path style="fill:#F29C1F;" d="M147.525,112.814c-21.557,0.024-39.027,17.494-39.051,39.051c0,4.793,3.885,8.678,8.678,8.678
			s8.678-3.885,8.678-8.678c0-11.982,9.713-21.695,21.695-21.695c11.982,0,21.695,9.713,21.695,21.695
			c0,11.982-9.713,21.695-21.695,21.695h-4.339c-4.793,0-8.678,3.885-8.678,8.678v17.356c0,4.793,3.885,8.678,8.678,8.678
			c4.793,0,8.678-3.885,8.678-8.678v-8.921c20.59-2.308,35.794-20.294,34.641-40.981
			C185.352,129.005,168.244,112.819,147.525,112.814z"/>
		<path style="fill:#F29C1F;" d="M137.025,228.144c-3.356,3.422-3.356,8.901,0,12.323c3.396,3.369,8.878,3.354,12.256-0.033
			c3.378-3.387,3.378-8.869,0-12.256C145.903,224.79,140.421,224.775,137.025,228.144z"/>
	</g>
	<g>
		<path style="fill:#A5A5A4;" d="M221.288,156.203h112.814c4.793,0,8.678-3.885,8.678-8.678c0-4.793-3.885-8.678-8.678-8.678
			H221.288c-4.793,0-8.678,3.885-8.678,8.678C212.61,152.318,216.495,156.203,221.288,156.203z"/>
		<path style="fill:#A5A5A4;" d="M368.814,156.203h26.034c4.793,0,8.678-3.885,8.678-8.678c0-4.793-3.885-8.678-8.678-8.678h-26.034
			c-4.793,0-8.678,3.885-8.678,8.678C360.136,152.318,364.021,156.203,368.814,156.203z"/>
		<path style="fill:#A5A5A4;" d="M282.034,173.559h-60.746c-4.793,0-8.678,3.885-8.678,8.678s3.885,8.678,8.678,8.678h60.746
			c4.793,0,8.678-3.885,8.678-8.678S286.827,173.559,282.034,173.559z"/>
		<path style="fill:#A5A5A4;" d="M394.847,173.559h-78.102c-4.793,0-8.678,3.885-8.678,8.678s3.885,8.678,8.678,8.678h78.102
			c4.793,0,8.678-3.885,8.678-8.678S399.64,173.559,394.847,173.559z"/>
		<path style="fill:#A5A5A4;" d="M282.034,208.271h-60.746c-4.793,0-8.678,3.885-8.678,8.678c0,4.793,3.885,8.678,8.678,8.678
			h60.746c4.793,0,8.678-3.885,8.678-8.678C290.712,212.156,286.827,208.271,282.034,208.271z"/>
		<path style="fill:#A5A5A4;" d="M351.458,208.271h-34.712c-4.793,0-8.678,3.885-8.678,8.678c0,4.793,3.885,8.678,8.678,8.678
			h34.712c4.793,0,8.678-3.885,8.678-8.678C360.136,212.156,356.25,208.271,351.458,208.271z"/>
		<path style="fill:#A5A5A4;" d="M394.847,208.271h-8.678c-4.793,0-8.678,3.885-8.678,8.678c0,4.793,3.885,8.678,8.678,8.678h8.678
			c4.793,0,8.678-3.885,8.678-8.678C403.525,212.156,399.64,208.271,394.847,208.271z"/>
	</g>
</g>
<g>
</g>
<g>
</g>
<g>
</g>
<g>
</g>
<g>
</g>
<g>
</g>
<g>
</g>
<g>
</g>
<g>
</g>
<g>
</g>
<g>
</g>
<g>
</g>
<g>
</g>
<g>
</g>
<g>
</g>
</svg>
